<?xml version="1.0" encoding="utf-8"?>
<!-- Generator: Adobe Illustrator 22.1.0, SVG Export Plug-In . SVG Version: 6.00 Build 0)  -->
<svg version="1.1" xmlns="http://www.w3.org/2000/svg" xmlns:xlink="http://www.w3.org/1999/xlink" x="0px" y="0px"
	 viewBox="0 0 413 149" style="enable-background:new 0 0 413 149;" xml:space="preserve">
<style type="text/css">
	.st0{fill:#293279;}
	.st1{fill-rule:evenodd;clip-rule:evenodd;fill:#E9690B;}
	.st2{fill-rule:evenodd;clip-rule:evenodd;fill:#FFFFFF;}
</style>
<g id="Layer_1">
	<rect x="19.8" y="17.3" class="st0" width="8.3" height="105.9"/>
	<g>
		<defs>
			<rect id="SVGID_1_" x="-211" y="-227.3" width="841.9" height="595.3"/>
		</defs>
		<clipPath id="SVGID_2_">
			<use xlink:href="#SVGID_1_"  style="overflow:visible;"/>
		</clipPath>
	</g>
</g>
<g id="Isolation_Mode">
	<path class="st0" d="M45.8,70.9v-1.2c0-31.2,21.5-53.8,49.2-53.8c21.9,0,39.5,11.4,42.8,33.2h-8.3c-3.3-17-14.8-26.5-34.4-26.5
		c-23.7,0-40.9,19-40.9,46.9v1.2c0,28.6,15.7,46.7,40.9,46.7c19.1,0,32.7-10.1,36.1-28.3h7.7c-3.9,22.8-21.2,35.2-44,35.2
		C64.8,124.3,45.8,102.9,45.8,70.9"/>
	<polygon class="st0" points="155,17.3 228.3,17.3 228.3,43.2 188.6,43.2 188.6,62.9 220.6,62.9 220.6,87.6 188.6,87.6 188.6,123.2 
		155,123.2 	"/>
	<path class="st0" d="M234.5,70.9v-1.2c0-32.7,24.9-54.1,56.6-54.1c32.6,0,56.9,19.7,56.9,53.2V70c0,33-22.7,55.1-57.5,55.1
		C255.8,125.1,234.5,103,234.5,70.9 M313,70.7v-1.2c0-17.9-8.6-27.7-21.9-27.7c-13,0-21.5,9.6-21.5,27.7v1.2c0,18.1,8.4,28,21.8,28
		C304.6,98.7,313,88.4,313,70.7"/>
	<path class="st1" d="M363.1,17.7h37l0,38.7c0,0,2,18.4-18.6,24.5l-9-10.3c0,0,9.4-3.2,11-14.2h-20.3L363.1,17.7z"/>
	<path class="st2" d="M378.5,35.6h3.2c1.1,0,1.9-0.2,2.3-0.5c0.4-0.4,0.6-1,0.6-1.8c0-0.9-0.2-1.5-0.6-1.9c-0.4-0.4-1.3-0.5-2.5-0.5
		h-3L378.5,35.6z M371.5,50l0-25.3H382c3.3,0,5.6,0.6,7,1.7c1.4,1.1,2.1,3,2.1,5.6c0,1.5-0.3,2.8-0.9,3.8c-0.6,1-1.5,1.8-2.7,2.4
		c1.2,0.3,2.1,0.9,2.7,1.8c0.6,0.9,0.9,2.2,0.9,3.9l0.1,3.5c0,0,0,0.1,0,0.1c0,1,0.2,1.5,0.6,1.6l0,0.9h-7.1
		c-0.1-0.6-0.2-1.1-0.3-1.6c-0.1-0.5-0.1-0.8-0.1-1.1v-2.5c0-1.3-0.2-2.2-0.7-2.8c-0.4-0.5-1.2-0.8-2.3-0.8h-3V50H371.5z"/>
</g>
</svg>
